<svg xmlns="http://www.w3.org/2000/svg" viewBox="0 0 200 200">
  <defs>
    <linearGradient id="robe3" x1="0%" y1="0%" x2="100%" y2="100%">
      <stop offset="0%" stop-color="#9370DB"/>
      <stop offset="100%" stop-color="#6A5ACD"/>
    </linearGradient>
  </defs>
  <circle cx="100" cy="100" r="90" fill="#1a1a2e"/>
  <circle cx="100" cy="100" r="85" fill="url(#robe3)" opacity="0.3"/>
  
  <path d="M50 150 Q40 190 60 198 L140 198 Q160 190 150 150 Q100 160 50 150" fill="url(#robe3)"/>
  <ellipse cx="100" cy="125" rx="45" ry="50" fill="url(#robe3)"/>
  
  <circle cx="100" cy="60" r="40" fill="#F5DEB3"/>
  
  <path d="M50 45 L100 0 L150 45 Q100 35 50 45" fill="#6A5ACD"/>
  <path d="M45 45 Q100 37 155 45 L150 50 Q100 42 50 50 Z" fill="#9370DB"/>
  <ellipse cx="100" cy="15" rx="20" ry="8" fill="#FFD700" opacity="0.6"/>
  
  <circle cx="84" cy="58" r="5" fill="#2C1810"/>
  <circle cx="116" cy="58" r="5" fill="#2C1810"/>
  <path d="M88 78 Q100 88 112 78" fill="none" stroke="#2C1810" stroke-width="3" stroke-linecap="round"/>
  
  <path d="M75 85 Q100 120 125 85" fill="#C0C0C0" opacity="0.9"/>
  <path d="M70 95 Q100 125 130 95" fill="#A9A9A9" opacity="0.7"/>
  
  <circle cx="84" cy="58" r="7" fill="white"/>
  <circle cx="116" cy="58" r="7" fill="white"/>
  <circle cx="84" cy="58" r="4" fill="#2C1810"/>
  <circle cx="116" cy="58" r="4" fill="#2C1810"/>
  <path d="M82 65 Q84 68 86 65" fill="none" stroke="white" stroke-width="1.5"/>
  <path d="M114 65 Q116 68 118 65" fill="none" stroke="white" stroke-width="1.5"/>
  
  <rect x="35" y="70" width="10" height="128" fill="#8B4513" rx="3"/>
  <circle cx="40" cy="65" r="14" fill="#FFD700"/>
  <circle cx="40" cy="65" r="9" fill="#FFA500"/>
  <circle cx="40" cy="65" r="4" fill="#FFFF00" opacity="0.8"/>
  
  <circle cx="165" cy="30" r="5" fill="#FFD700" opacity="0.9"/>
  <circle cx="175" cy="50" r="3" fill="#FFD700" opacity="0.7"/>
  <circle cx="25" cy="40" r="4" fill="#FFD700" opacity="0.8"/>
  <circle cx="160" cy="75" r="3" fill="#FFD700" opacity="0.6"/>
  <circle cx="35" cy="90" r="2" fill="#FFD700" opacity="0.5"/>
</svg>
