<svg xmlns="http://www.w3.org/2000/svg" viewBox="0 0 200 200">
  <defs>
    <linearGradient id="robe6" x1="0%" y1="0%" x2="100%" y2="100%">
      <stop offset="0%" stop-color="#9400D3"/>
      <stop offset="100%" stop-color="#6A0DAD"/>
    </linearGradient>
  </defs>
  <circle cx="100" cy="100" r="90" fill="#1a1a2e"/>
  <circle cx="100" cy="100" r="85" fill="url(#robe6)" opacity="0.3"/>
  
  <path d="M35 165 Q25 198 45 198 L155 198 Q175 198 165 165 Q100 175 35 165" fill="url(#robe6)"/>
  <ellipse cx="100" cy="125" rx="60" ry="60" fill="url(#robe6)"/>
  
  <circle cx="100" cy="45" r="46" fill="#F5DEB3"/>
  
  <path d="M35 30 L100 -15 L165 30 Q100 20 35 30" fill="#6A0DAD"/>
  <path d="M30 30 Q100 22 170 30 L165 35 Q100 27 35 35 Z" fill="#9400D3"/>
  <ellipse cx="100" cy="-5" rx="35" ry="15" fill="#FFD700" opacity="0.9"/>
  
  <circle cx="78" cy="43" r="5" fill="#2C1810"/>
  <circle cx="122" cy="43" r="5" fill="#2C1810"/>
  <path d="M85 70 Q100 80 115 70" fill="none" stroke="#2C1810" stroke-width="3.5" stroke-linecap="round"/>
  
  <path d="M60 78 Q100 140 140 78" fill="#E6E6FA" opacity="0.9"/>
  <path d="M55 90 Q100 145 145 90" fill="#DDA0DD" opacity="0.85"/>
  <path d="M50 100 Q100 150 150 100" fill="#DA70D6" opacity="0.8"/>
  
  <circle cx="78" cy="43" r="8" fill="white"/>
  <circle cx="122" cy="43" r="8" fill="white"/>
  <circle cx="78" cy="43" r="5" fill="#2C1810"/>
  <circle cx="122" cy="43" r="5" fill="#2C1810"/>
  <path d="M75 50 Q78 54 81 50" fill="none" stroke="white" stroke-width="2"/>
  <path d="M119 50 Q122 54 125 50" fill="none" stroke="white" stroke-width="2"/>
  
  <rect x="20" y="55" width="16" height="143" fill="#3D2914" rx="4"/>
  <circle cx="28" cy="45" r="20" fill="#FFD700"/>
  <circle cx="28" cy="45" r="14" fill="#FFA500"/>
  <circle cx="28" cy="45" r="7" fill="#FFFF00" opacity="0.95"/>
  
  <circle cx="180" cy="15" r="8" fill="#FFD700" opacity="0.95"/>
  <circle cx="185" cy="35" r="6" fill="#FFD700" opacity="0.75"/>
  <circle cx="15" cy="25" r="6" fill="#FFD700" opacity="0.85"/>
  <circle cx="175" cy="60" r="5" fill="#FFD700" opacity="0.65"/>
  <circle cx="20" cy="75" r="5" fill="#FFD700" opacity="0.55"/>
  <circle cx="182" cy="85" r="4" fill="#FFD700" opacity="0.45"/>
  <circle cx="165" cy="105" r="3" fill="#FFD700" opacity="0.35"/>
  <circle cx="30" cy="120" r="2" fill="#FFD700" opacity="0.3"/>
</svg>
