<svg xmlns="http://www.w3.org/2000/svg" viewBox="0 0 200 200">
  <defs>
    <linearGradient id="robe7" x1="0%" y1="0%" x2="100%" y2="100%">
      <stop offset="0%" stop-color="#BA55D3"/>
      <stop offset="100%" stop-color="#8B008B"/>
    </linearGradient>
    <linearGradient id="glow7" x1="0%" y1="0%" x2="100%" y2="100%">
      <stop offset="0%" stop-color="#FFD700" stop-opacity="0.3"/>
      <stop offset="100%" stop-color="#FF6347" stop-opacity="0.3"/>
    </linearGradient>
  </defs>
  <circle cx="100" cy="100" r="90" fill="#1a1a2e"/>
  <circle cx="100" cy="100" r="88" fill="url(#glow7)"/>
  <circle cx="100" cy="100" r="85" fill="url(#robe7)" opacity="0.3"/>
  
  <path d="M30 170 Q20 198 40 198 L160 198 Q180 198 170 170 Q100 180 30 170" fill="url(#robe7)"/>
  <ellipse cx="100" cy="125" rx="65" ry="62" fill="url(#robe7)"/>
  
  <circle cx="100" cy="40" r="48" fill="#F5DEB3"/>
  
  <path d="M30 25 L100 -20 L170 25 Q100 15 30 25" fill="#8B008B"/>
  <path d="M25 25 Q100 17 175 25 L170 30 Q100 22 30 30 Z" fill="#BA55D3"/>
  <ellipse cx="100" cy="-10" rx="40" ry="18" fill="#FFD700" opacity="0.95"/>
  <ellipse cx="100" cy="-10" rx="25" ry="10" fill="#FF6347" opacity="0.4"/>
  
  <circle cx="76" cy="38" r="5" fill="#2C1810"/>
  <circle cx="124" cy="38" r="5" fill="#2C1810"/>
  <path d="M85 68 Q100 78 115 68" fill="none" stroke="#2C1810" stroke-width="4" stroke-linecap="round"/>
  
  <path d="M55 75 Q100 150 145 75" fill="#FFC0CB" opacity="0.95"/>
  <path d="M50 88 Q100 155 150 88" fill="#FFB6C1" opacity="0.9"/>
  <path d="M45 100 Q100 160 155 100" fill="#FF69B4" opacity="0.85"/>
  <path d="M40 110 Q100 165 160 110" fill="#FF1493" opacity="0.7"/>
  
  <circle cx="76" cy="38" r="8" fill="white"/>
  <circle cx="124" cy="38" r="8" fill="white"/>
  <circle cx="76" cy="38" r="5" fill="#2C1810"/>
  <circle cx="124" cy="38" r="5" fill="#2C1810"/>
  <path d="M72 45 Q76 50 80 45" fill="none" stroke="white" stroke-width="2"/>
  <path d="M120 45 Q124 50 128 45" fill="none" stroke="white" stroke-width="2"/>
  
  <rect x="15" y="50" width="18" height="148" fill="#2D1F14" rx="5"/>
  <circle cx="24" cy="38" r="22" fill="#FFD700"/>
  <circle cx="24" cy="38" r="16" fill="#FFA500"/>
  <circle cx="24" cy="38" r="8" fill="#FFFF00" opacity="0.95"/>
  <circle cx="24" cy="38" r="3" fill="white" opacity="0.8"/>
  
  <circle cx="185" cy="10" r="10" fill="#FFD700" opacity="1"/>
  <circle cx="190" cy="30" r="7" fill="#FFD700" opacity="0.8"/>
  <circle cx="10" cy="20" r="7" fill="#FFD700" opacity="0.9"/>
  <circle cx="180" cy="55" r="6" fill="#FFD700" opacity="0.7"/>
  <circle cx="15" cy="70" r="6" fill="#FFD700" opacity="0.6"/>
  <circle cx="188" cy="80" r="5" fill="#FFD700" opacity="0.5"/>
  <circle cx="170" cy="100" r="4" fill="#FFD700" opacity="0.4"/>
  <circle cx="25" cy="115" r="3" fill="#FFD700" opacity="0.35"/>
  <circle cx="160" cy="130" r="2" fill="#FFD700" opacity="0.3"/>
</svg>
