<svg xmlns="http://www.w3.org/2000/svg" viewBox="0 0 200 200">
  <defs>
    <linearGradient id="robe4" x1="0%" y1="0%" x2="100%" y2="100%">
      <stop offset="0%" stop-color="#8B008B"/>
      <stop offset="100%" stop-color="#6B0F6B"/>
    </linearGradient>
  </defs>
  <circle cx="100" cy="100" r="90" fill="#1a1a2e"/>
  <circle cx="100" cy="100" r="85" fill="url(#robe4)" opacity="0.3"/>
  
  <path d="M45 155 Q35 195 55 198 L145 198 Q165 195 155 155 Q100 165 45 155" fill="url(#robe4)"/>
  <ellipse cx="100" cy="125" rx="50" ry="55" fill="url(#robe4)"/>
  
  <circle cx="100" cy="55" r="42" fill="#F5DEB3"/>
  
  <path d="M45 40 L100 -5 L155 40 Q100 30 45 40" fill="#6B0F6B"/>
  <path d="M40 40 Q100 32 160 40 L155 45 Q100 37 45 45 Z" fill="#8B008B"/>
  <ellipse cx="100" cy="5" rx="25" ry="10" fill="#FFD700" opacity="0.7"/>
  
  <circle cx="82" cy="53" r="5" fill="#2C1810"/>
  <circle cx="118" cy="53" r="5" fill="#2C1810"/>
  <path d="M85 75 Q100 85 115 75" fill="none" stroke="#2C1810" stroke-width="3" stroke-linecap="round"/>
  
  <path d="M70 82 Q100 125 130 82" fill="#B8B8B8" opacity="0.9"/>
  <path d="M65 95 Q100 130 135 95" fill="#A0A0A0" opacity="0.8"/>
  <path d="M60 105 Q100 135 140 105" fill="#909090" opacity="0.6"/>
  
  <circle cx="82" cy="53" r="7" fill="white"/>
  <circle cx="118" cy="53" r="7" fill="white"/>
  <circle cx="82" cy="53" r="4" fill="#2C1810"/>
  <circle cx="118" cy="53" r="4" fill="#2C1810"/>
  <path d="M80 60 Q82 63 84 60" fill="none" stroke="white" stroke-width="1.5"/>
  <path d="M116 60 Q118 63 120 60" fill="none" stroke="white" stroke-width="1.5"/>
  
  <rect x="30" y="65" width="12" height="133" fill="#654321" rx="3"/>
  <circle cx="36" cy="58" r="16" fill="#FFD700"/>
  <circle cx="36" cy="58" r="10" fill="#FFA500"/>
  <circle cx="36" cy="58" r="5" fill="#FFFF00" opacity="0.9"/>
  
  <circle cx="170" cy="25" r="6" fill="#FFD700" opacity="0.9"/>
  <circle cx="178" cy="45" r="4" fill="#FFD700" opacity="0.7"/>
  <circle cx="22" cy="35" r="4" fill="#FFD700" opacity="0.8"/>
  <circle cx="165" cy="70" r="3" fill="#FFD700" opacity="0.6"/>
  <circle cx="30" cy="85" r="3" fill="#FFD700" opacity="0.5"/>
  <circle cx="175" cy="95" r="2" fill="#FFD700" opacity="0.4"/>
</svg>
